<?xml version="1.0" encoding="utf-8"?>
<!-- Generator: Adobe Illustrator 27.8.1, SVG Export Plug-In . SVG Version: 6.00 Build 0)  -->
<svg version="1.1" id="Layer_1" xmlns="http://www.w3.org/2000/svg" xmlns:xlink="http://www.w3.org/1999/xlink" x="0px" y="0px"
	 viewBox="0 0 16 16" style="enable-background:new 0 0 16 16;" xml:space="preserve">
<g>
	<g>
		<path d="M8.5,9.8l-2.9,2.9l-2.3-2.3l2.1-2.1L5.1,8.2C4.9,8,4.7,8,4.5,8.2L3,9.6c-0.1,0.2-0.4,0.2-0.6,0c-0.1-0.1-0.1-0.4,0-0.6
			l1.5-1.5C4.4,7,5.2,7,5.7,7.5l0.3,0.3l0.3-0.3c0.6-0.6,1.6-0.6,2.3,0S9.1,9.2,8.5,9.8L8.5,9.8z M4,14.2c-0.9,0.9-1.9,1.4-3.1,1.6
			L0.5,16c-0.1,0-0.3,0-0.4-0.1C0,15.8,0,15.6,0,15.5L0.1,15c0.2-1.2,0.8-2.2,1.6-3.1l1.1-1.1l2.3,2.3L4,14.2z"/>
	</g>
</g>
</svg>
